<svg width="335.302" height="335.302" xmlns="http://www.w3.org/2000/svg" xml:space="preserve" version="1.1">

 <g>
  <title>Layer 1</title>
  <g id="svg_1">
   <path stroke="#000" fill="#ffffff" id="svg_2" d="m319.555,0l-42.422,0c-12.278,0 -23.913,8.69 -27.063,20.558l-16.114,60.442l-219.142,0c-4.089,0 -7.811,1.67 -10.479,4.614c-2.668,2.944 -3.916,6.831 -3.515,10.901l11.405,115.809c0.786,7.974 7.945,14.676 15.957,14.676l183.423,0c7.753,0 15.413,-6.066 17.438,-13.551l21.406,-79.26c0.593,-1.066 1.068,-2.061 1.395,-3.295l26.828,-100.894l40.884,0c8.284,0 15,-6.716 15,-15s-6.716,-15 -15.001,-15z"/>
   <path stroke="#000" fill="#ffffff" id="svg_3" d="m221.17,257l-202,0c-8.284,0 -15,6.716 -15,15s6.716,15 15,15l8.781,0c-2.128,4.416 -3.321,9.364 -3.321,14.585c0,18.591 15.125,33.717 33.718,33.717c18.591,0 33.717,-15.125 33.717,-33.717c0,-5.221 -1.193,-10.169 -3.321,-14.585l66.737,0c-2.128,4.416 -3.321,9.364 -3.321,14.585c0,18.591 15.125,33.717 33.717,33.717s33.718,-15.125 33.718,-33.717c0,-5.221 -1.193,-10.169 -3.321,-14.585l4.898,0c8.284,0 15,-6.716 15,-15s-6.718,-15 -15.002,-15z"/>
  </g>
  <g id="svg_4"/>
  <g id="svg_5"/>
  <g id="svg_6"/>
  <g id="svg_7"/>
  <g id="svg_8"/>
  <g id="svg_9"/>
  <g id="svg_10"/>
  <g id="svg_11"/>
  <g id="svg_12"/>
  <g id="svg_13"/>
  <g id="svg_14"/>
  <g id="svg_15"/>
  <g id="svg_16"/>
  <g id="svg_17"/>
  <g id="svg_18"/>
 </g>
</svg>